<svg xmlns="http://www.w3.org/2000/svg" xmlns:svg="http://www.w3.org/2000/svg" id="svg4" width="24" height="24" version="1.1" viewBox="0 0 24 24"><metadata id="metadata10"/><path style="display:inline;fill:#fff;fill-opacity:1" id="path2" d="M 19.07,4.93 C 17.22,3 14.66,1.96 12,2 9.34,1.96 6.79,3 4.94,4.93 3,6.78 1.96,9.34 2,12 1.96,14.66 3,17.21 4.93,19.06 6.78,21 9.34,22.04 12,22 14.66,22.04 17.21,21 19.06,19.07 21,17.22 22.04,14.66 22,12 22.04,9.34 21,6.78 19.07,4.93"/><path style="fill:#000;fill-opacity:1" id="path838" d="m 17,12 v 6 h -3.5 v -5 h -3 v 5 H 7 V 12 H 5 l 7,-7 7.5,7 z"/></svg>